<?xml version="1.0" standalone="no"?>
<!DOCTYPE svg PUBLIC "-//W3C//DTD SVG 20010904//EN"
 "http://www.w3.org/TR/2001/REC-SVG-20010904/DTD/svg10.dtd">
<svg version="1.0" xmlns="http://www.w3.org/2000/svg"
 width="222.000000pt" height="222.000000pt" viewBox="0 0 222.000000 222.000000"
 preserveAspectRatio="xMidYMid meet">
<metadata>
Created by potrace 1.11, written by Peter Selinger 2001-2013
</metadata>
<g transform="translate(0.000000,222.000000) scale(0.100000,-0.100000)"
fill="#000000" stroke="none">
<path d="M1119 2216 c-2 -2 -44 -6 -94 -9 -93 -6 -149 -14 -175 -24 -8 -3 -24
-8 -35 -10 -31 -7 -38 -9 -68 -21 -16 -7 -31 -12 -35 -12 -15 0 -192 -93 -192
-101 0 -5 -3 -8 -7 -7 -5 2 -21 -6 -36 -17 -30 -21 -72 -56 -50 -41 7 5 13 5
13 1 0 -5 9 0 21 11 12 10 23 18 25 17 5 -3 30 6 84 30 25 12 54 22 64 24 11
2 26 9 35 16 12 10 13 9 6 -3 -8 -13 -7 -13 8 -1 9 7 17 11 17 8 0 -4 17 0 38
7 21 8 56 16 77 20 22 3 51 8 65 11 40 8 159 17 235 17 84 0 250 -15 250 -22
0 -1 14 -4 30 -6 45 -8 70 -12 70 -14 0 -1 8 -3 17 -5 46 -9 217 -71 266 -96
66 -35 72 -36 34 -4 -17 14 -35 25 -42 25 -6 0 -9 4 -6 8 2 4 -10 14 -27 21
-18 8 -40 21 -49 29 -26 22 -109 62 -101 49 3 -7 -3 -3 -15 7 -12 11 -22 16
-22 11 0 -4 -6 -3 -12 2 -13 10 -73 32 -106 38 -9 2 -17 4 -17 5 0 1 -13 4
-30 6 -16 3 -41 8 -55 13 -14 4 -56 9 -95 10 -38 1 -72 4 -76 6 -3 3 -8 3 -10
1z"/>
<path d="M812 1914 c-32 -16 -62 -45 -56 -55 3 -5 -3 -9 -12 -9 -10 0 -14 -3
-11 -7 4 -3 0 -15 -10 -25 -9 -10 -13 -18 -8 -18 4 0 2 -6 -4 -13 -6 -8 -12
-22 -14 -33 -1 -10 -7 -26 -12 -34 -5 -8 -10 -22 -11 -30 0 -8 -4 -23 -8 -32
-4 -9 -8 -22 -10 -30 -1 -7 -5 -18 -8 -24 -4 -6 -9 -22 -12 -36 -2 -15 -9 -36
-16 -47 -6 -12 -8 -21 -4 -21 3 0 2 -6 -4 -13 -6 -7 -14 -28 -17 -47 -3 -19
-11 -40 -17 -47 -6 -7 -7 -13 -3 -13 4 0 3 -6 -3 -13 -6 -7 -14 -28 -17 -47
-3 -18 -9 -38 -13 -44 -3 -6 -8 -20 -9 -30 -2 -11 -8 -25 -15 -33 -9 -11 -16
-8 -38 14 -15 16 -25 31 -23 36 2 4 -3 7 -11 7 -9 0 -15 6 -14 13 2 6 -4 11
-12 9 -8 -2 -12 0 -8 4 4 4 -5 22 -20 40 -55 67 -77 99 -74 106 1 4 -5 8 -14
8 -8 0 -13 4 -10 9 3 5 -1 14 -9 21 -8 7 -13 15 -10 19 2 4 -7 19 -21 34 -13
15 -24 28 -22 29 1 3 -10 43 -17 58 -1 3 -5 13 -9 22 -8 17 -14 44 -15 66 -1
7 -6 10 -11 7 -6 -4 -8 -10 -5 -15 3 -5 0 -12 -5 -15 -11 -7 -27 -41 -28 -59
0 -5 -5 -12 -12 -16 -6 -4 -12 -14 -14 -22 -1 -9 -8 -23 -15 -32 -7 -9 -10
-16 -6 -16 5 0 0 -9 -10 -20 -10 -11 -15 -20 -11 -20 3 0 0 -12 -7 -27 -7 -16
-13 -35 -12 -43 1 -8 -2 -20 -6 -25 -4 -6 -10 -22 -12 -35 -3 -14 -8 -37 -12
-52 -19 -74 -20 -376 -1 -407 4 -6 8 -26 10 -45 3 -33 23 -101 35 -121 3 -5 6
-16 8 -24 1 -8 5 -17 10 -20 5 -3 8 -13 8 -21 -1 -8 5 -23 13 -32 8 -10 11
-18 7 -18 -4 0 -1 -8 8 -17 8 -10 15 -22 15 -26 0 -5 9 -20 21 -33 11 -13 19
-24 16 -24 -7 0 43 -71 75 -107 16 -17 26 -34 23 -37 -4 -3 2 -6 12 -6 10 0
15 -3 11 -7 -8 -8 73 -93 89 -93 6 0 29 -18 50 -40 21 -22 44 -40 51 -40 6 0
17 -7 24 -15 7 -8 16 -13 20 -10 4 3 13 -2 20 -10 7 -8 37 -27 69 -41 31 -15
59 -29 64 -31 4 -2 7 -2 7 1 0 3 -18 14 -40 24 -23 10 -37 22 -33 28 5 5 4 6
-1 2 -5 -4 -15 -3 -23 3 -7 6 -13 8 -13 5 0 -4 -10 2 -22 14 -12 11 -27 20
-33 20 -6 0 -24 13 -40 30 -16 16 -33 30 -38 30 -5 0 -46 36 -91 80 -60 58
-82 87 -82 105 0 14 6 25 13 25 7 0 12 -6 10 -12 -1 -7 4 -12 10 -11 7 2 12
-3 10 -10 -1 -6 4 -11 10 -10 7 2 12 -3 10 -10 -1 -6 4 -11 10 -10 7 2 12 -3
10 -10 -1 -6 4 -11 10 -10 7 2 12 -2 10 -8 -1 -6 7 -16 18 -22 11 -7 41 -30
66 -52 56 -48 102 -81 110 -78 4 1 15 -7 24 -17 10 -11 24 -20 30 -20 7 0 18
-7 25 -15 7 -9 15 -13 18 -10 3 3 14 -2 24 -12 10 -9 18 -12 18 -8 0 4 8 1 18
-8 9 -8 22 -16 27 -17 6 -2 21 -7 35 -13 14 -6 27 -11 30 -12 3 -1 18 -7 34
-14 16 -6 38 -13 50 -16 11 -2 21 -4 21 -5 0 -1 11 -4 25 -7 39 -7 55 -11 55
-13 0 -12 232 -20 260 -9 14 5 2 8 -35 9 -30 1 -62 3 -70 5 -8 2 -33 6 -55 10
-22 3 -47 9 -55 12 -8 3 -24 8 -35 10 -11 3 -24 6 -30 8 -5 2 -20 6 -32 10
-12 4 -25 7 -27 7 -3 -1 -31 12 -61 28 -31 16 -53 24 -49 17 4 -7 -2 -4 -13 6
-11 9 -23 14 -26 10 -4 -3 -7 -2 -7 4 0 6 -24 23 -54 37 -30 15 -59 33 -66 41
-7 8 -18 15 -25 15 -6 0 -20 9 -30 20 -10 11 -23 20 -30 20 -6 0 -24 14 -40
30 -16 17 -35 30 -42 30 -8 0 -11 5 -8 10 3 6 1 10 -6 10 -21 0 -178 161 -174
179 2 9 11 34 20 55 l17 39 111 -111 c62 -62 117 -112 122 -112 6 0 28 -18 50
-40 22 -21 45 -39 51 -40 6 0 19 -9 29 -20 10 -11 23 -20 30 -20 7 0 20 -9 30
-20 10 -11 20 -18 23 -15 3 3 14 -3 25 -12 15 -13 18 -14 12 -3 -4 8 3 5 17
-8 13 -12 29 -22 34 -22 6 0 16 -6 23 -13 6 -6 15 -12 19 -13 4 0 21 -6 37
-13 17 -7 31 -11 31 -9 1 2 10 -5 20 -14 11 -9 22 -17 27 -17 4 -1 9 -2 12 -2
3 -1 10 -3 15 -4 6 -1 12 -4 15 -5 3 -1 10 -4 15 -5 6 -1 12 -4 15 -5 3 -1 10
-4 15 -5 6 -1 11 -3 13 -5 3 -3 39 -10 67 -14 14 -2 33 -7 44 -11 20 -9 230
-11 261 -3 11 3 31 10 45 15 14 6 28 9 31 7 4 -2 15 6 25 18 11 12 13 18 7 14
-19 -11 -218 -7 -218 4 0 1 -13 4 -30 6 -16 3 -49 11 -72 19 -24 7 -43 12 -43
10 0 -3 -16 4 -35 15 -20 11 -42 20 -50 20 -8 0 -15 5 -15 11 0 5 -4 8 -8 5
-4 -3 -44 13 -88 34 -43 22 -74 40 -69 40 6 0 -7 8 -27 18 -20 10 -47 26 -59
37 -14 12 -19 14 -14 5 4 -8 -6 -2 -23 14 -18 17 -32 26 -32 22 0 -4 -15 7
-32 23 -18 17 -38 31 -43 31 -6 0 -29 18 -50 40 -21 22 -44 40 -50 40 -5 1
-37 28 -70 60 -33 33 -66 60 -72 60 -7 0 -12 4 -10 8 1 5 -16 27 -38 51 -42
44 -47 58 -30 77 50 54 73 82 77 94 5 16 38 23 35 7 -1 -7 4 -11 10 -10 7 2
12 -3 10 -10 -1 -6 4 -11 10 -10 7 2 12 -3 10 -10 -1 -6 4 -11 10 -10 7 2 12
-3 10 -10 -1 -6 4 -11 10 -10 7 2 12 -1 10 -6 -1 -5 1 -8 4 -8 3 1 38 -29 78
-68 40 -38 79 -71 87 -73 8 -2 12 -8 9 -13 -4 -5 0 -9 8 -9 7 0 26 -14 42 -30
16 -16 34 -30 40 -30 6 0 24 -13 40 -30 16 -16 33 -30 39 -30 5 0 21 -10 34
-22 14 -13 22 -16 17 -8 -4 8 8 0 26 -17 19 -18 40 -33 46 -33 6 0 16 -7 23
-15 7 -8 16 -13 20 -10 4 2 15 -4 25 -15 10 -11 23 -20 30 -20 6 0 17 -6 24
-13 6 -6 15 -12 19 -13 16 -2 48 -18 66 -33 10 -9 19 -15 20 -13 0 2 12 -1 26
-6 14 -5 28 -9 31 -8 4 0 15 -7 25 -16 11 -9 22 -17 27 -17 4 -1 9 -2 12 -2 3
-1 10 -3 15 -4 6 -1 11 -3 13 -5 1 -1 10 -3 20 -5 10 -2 26 -7 35 -11 42 -18
196 -24 240 -10 33 12 232 200 232 221 0 6 11 22 25 35 13 12 22 27 19 31 -3
5 -1 9 4 9 5 0 19 21 32 48 13 26 31 55 39 66 9 10 15 19 13 20 -3 1 9 38 25
76 3 8 7 20 8 25 2 6 10 35 19 65 8 30 18 73 21 95 4 22 9 54 12 70 9 50 9
197 0 250 -4 28 -10 65 -12 83 -2 18 -6 36 -9 40 -3 5 -8 24 -11 42 -3 18 -9
38 -13 44 -3 6 -8 20 -9 30 -2 11 -8 25 -14 33 -6 7 -8 13 -4 13 5 0 1 8 -8
18 -8 9 -15 21 -15 25 0 16 -25 67 -34 67 -5 0 -7 4 -3 9 3 5 -1 16 -9 24 -8
8 -13 17 -10 19 2 3 -2 11 -10 17 -13 11 -15 9 -11 -7 2 -11 -3 -31 -10 -46
-8 -14 -12 -26 -9 -26 2 0 -2 -14 -11 -30 -9 -16 -13 -30 -10 -30 3 0 -4 -10
-15 -22 -10 -13 -18 -26 -17 -29 1 -4 -7 -16 -17 -28 -11 -12 -16 -21 -12 -21
4 0 -5 -12 -19 -27 -15 -16 -37 -44 -50 -63 -12 -19 -34 -46 -48 -59 -15 -13
-24 -28 -21 -33 3 -5 0 -7 -8 -6 -7 2 -12 -3 -11 -9 2 -7 -5 -13 -14 -13 -9 0
-13 -3 -10 -6 8 -9 -234 -254 -251 -254 -7 0 -10 -4 -7 -10 3 -5 -1 -10 -10
-10 -9 0 -13 -4 -10 -10 3 -5 -1 -10 -10 -10 -17 0 -27 19 -31 59 -1 14 -3 26
-4 26 -2 0 -6 17 -15 64 -3 19 -8 38 -11 42 -3 5 -7 27 -9 49 -2 22 -7 45 -10
50 -7 11 -12 50 -21 162 -5 57 -3 82 6 93 11 13 93 57 110 60 3 0 12 5 20 10
8 5 24 11 34 12 11 2 27 10 35 17 22 18 71 14 83 -7 5 -10 13 -15 18 -12 11 7
41 67 44 88 1 8 6 21 12 28 6 8 9 24 8 37 -1 12 -2 29 -3 37 -1 13 -77 56
-111 61 -16 3 -84 10 -185 20 -51 5 -65 11 -98 43 -21 20 -40 35 -42 34 -3 -2
-8 -2 -12 -2 -43 8 -454 2 -471 -7z"/>
</g>
</svg>
